<svg id="Layer_1" data-name="Layer 1" xmlns="http://www.w3.org/2000/svg" viewBox="0 0 69.72 66.71"><defs><style>.cls-1{stroke:#231f20;stroke-miterlimit:10;stroke-width:0.25px;}.cls-2{fill:#231f20;}.cls-3{fill:#ec008c;}.cls-4{fill:#fff;}.cls-5{fill:none;}</style></defs><path d="M41.55,64.55c0,1.29,0,2.59,0,3.88,0,.3.32.6.56,1-.61,0-1.16,0-1.7,0a.32.32,0,0,1-.24-.18c0-.06.09-.17.13-.26a2.62,2.62,0,0,0,.39-.9c.07-1,.07-2.11.06-3.16,0-.7.25-1.48-.56-2a1.46,1.46,0,0,1,2.09.54l2.09,3.61s.07,0,.17.08c0-1.16,0-2.3,0-3.43,0-.15-.15-.3-.23-.45s-.15-.22-.22-.34a1.25,1.25,0,0,1,.41-.14A7.17,7.17,0,0,1,46,63c-.73.45-.62,1.12-.63,1.75l-.06,4.7c-.54.2-.8,0-1-.44-.83-1.51-1.71-3-2.57-4.48Z" transform="translate(-0.08 -2.89)"/><path d="M.27,62.64c1.21.07,2.41.09,3.61.2a1.33,1.33,0,0,1,1.26,1.08,1.61,1.61,0,0,1-.65,1.76l-.27.23A5.6,5.6,0,0,1,5.09,67a1.7,1.7,0,0,1-1.26,2.38,36.43,36.43,0,0,1-3.66.19c0-.2-.05-.38,0-.39.67-.29.53-.88.55-1.41,0-1,0-2.06.06-3.09,0-.67.19-1.38-.68-1.8Zm1.55,3.7,0,2.51c1.66.14,2.25-.21,2.25-1.28S3.38,66.2,1.82,66.34Zm0-.66c.78,0,1.61.19,2-.64a1.52,1.52,0,0,0-.06-1.27c-.46-.63-1.21-.43-1.92-.4Z" transform="translate(-0.08 -2.89)"/><path d="M66,69.5l-2.29,0-.1-.14c1.07-.89,1.23-2.23,1.74-3.39.39-.88.72-1.79,1-2.7.12-.35.29-.59.66-.45a.94.94,0,0,1,.55.5c.49,1.53.92,3.09,1.42,4.62a7.17,7.17,0,0,0,.71,1.22,1.74,1.74,0,0,1,.09.39l-2.48,0c.28-.4.59-.66.63-1a3.85,3.85,0,0,0-.22-1.17l-2.13,0a3.63,3.63,0,0,0-.25,1.19C65.38,68.84,65.7,69.11,66,69.5Zm.81-5.6-1,2.85,1.78,0Z" transform="translate(-0.08 -2.89)"/><path d="M14.55,69.25a4.26,4.26,0,0,1-.47,0c-.58,0-1.17,0-1.87-.06a1.12,1.12,0,0,0,.24-1.88,1.83,1.83,0,0,0-1.76,0c-.65.48-.55,1.28.37,1.94H8.75c0-.16,0-.27,0-.35a14.06,14.06,0,0,0,.93-1.52c.55-1.31,1-2.66,1.52-4,.11-.32.21-.56.64-.55s.47.27.56.56c.45,1.46.88,2.93,1.36,4.38a6.14,6.14,0,0,0,.67,1.09A1.7,1.7,0,0,1,14.55,69.25Zm-2.11-2.56-.73-2.5-.14,0-.83,2.47Z" transform="translate(-0.08 -2.89)"/><path d="M31,63.06l0,1.7c-.42.21-.62.09-.77-.34-.27-.75-.4-.8-1.3-.69,0,.77,0,1.55,0,2.33s0,1.4,0,2.1c0,.37-.06.81.45,1,.08,0,.11.2.16.3a.64.64,0,0,1-.27.12h-2c0-.14,0-.29,0-.3C28,69,28,68.49,28,68c0-1.4,0-2.8,0-4.19-.86-.16-1.05-.06-1.31.68-.16.45-.16.45-.74.38l0-1.71Z" transform="translate(-0.08 -2.89)"/><path d="M60.14,62.89l0,1.72c-.36-.24-.68-.34-.76-.53a1.19,1.19,0,0,0-2.12-.1c-.66,1-.71,3.54.05,4.44a1.54,1.54,0,0,0,1.14.48,1.4,1.4,0,0,0,.91-.72c.21-.38.39-.49.83-.35l0,1.58a22.43,22.43,0,0,1-2.71.06,2,2,0,0,1-1.67-1.64,5.43,5.43,0,0,1,0-3.12,2.51,2.51,0,0,1,2.39-1.92A18.13,18.13,0,0,1,60.14,62.89Z" transform="translate(-0.08 -2.89)"/><path d="M34.39,63l2.09,0c-.92,1.85-.26,3.72-.39,5.54,0,.28.32.59.57,1l-2.18,0-.08-.14c1-.75.5-1.77.57-2.68a13,13,0,0,0,0-1.53c0-.75.19-1.55-.65-2.07Z" transform="translate(-0.08 -2.89)"/><path d="M51.92,63c-.91.64-.53,1.55-.58,2.37a14.78,14.78,0,0,0,0,1.88c.05.73-.34,1.59.7,2.07l-.16.16-2.13,0c0-.14,0-.31,0-.33.58-.26.5-.77.5-1.26,0-1.07,0-2.15,0-3.22,0-.62.16-1.31-.72-1.65l.15-.19,2.13,0Z" transform="translate(-0.08 -2.89)"/><path d="M18.35,68c.41-.15.62-.05.75.35a.91.91,0,0,0,1.19.62,1.27,1.27,0,0,0,.79-.6,1,1,0,0,0-.42-1.31c-.45-.29-.94-.53-1.39-.82a1.62,1.62,0,0,1-.88-1.84A1.69,1.69,0,0,1,20,63.1a4.58,4.58,0,0,1,.64,0c1.43,0,1.46,0,1.38,1.52-.34.13-.6.09-.73-.32a.85.85,0,0,0-1.08-.6,1.31,1.31,0,0,0-.78.62.9.9,0,0,0,.46,1.16c.41.27.87.48,1.29.74a1.82,1.82,0,0,1,.94,2.14c-.2.8-.76,1.2-1.81,1.26a3.75,3.75,0,0,1-.58,0C18,69.38,18.33,69.53,18.35,68Z" transform="translate(-0.08 -2.89)"/><path d="M21,62.25c-.65.8-1.13.78-1.57,0Z" transform="translate(-0.08 -2.89)"/><path d="M19.25,39V25.5c0-.67.17-.92.81-1a12,12,0,0,1,4.81.06c.91.21,1.05.4,1.05,1.34,0,2.86,0,5.72,0,8.58,0,.44.16.63.55.68a10.09,10.09,0,0,0,4.34-.2.67.67,0,0,0,.56-.75c0-2.8,0-5.6,0-8.4A1,1,0,0,1,32,24.72a6.08,6.08,0,0,1,1.84-.43,15.48,15.48,0,0,1,2.62.31c.48.08.69.4.68.94,0,2.81,0,5.63,0,8.44a.76.76,0,0,0,.49.8,6.1,6.1,0,0,0,4.15,0c.32-.1.4-.37.4-.71,0-2.87,0-5.75,0-8.62a.68.68,0,0,1,.51-.76,9.1,9.1,0,0,1,5.27-.19c.59.16.73.39.73,1V36.21c0,1.11-.16,1.28-1.27,1.4a6.87,6.87,0,0,1-.79,0h-19a1.5,1.5,0,0,0-1.63,1.63c0,1.16,0,2.33,0,3.5,0,2,0,4.1,0,6.15,0,.4.11.52.53.52,6.54,0,13.08,0,19.62,0a2.83,2.83,0,0,1,3,3.07c0,.46,0,.93,0,1.39a.92.92,0,0,1-.89.95c-.17,0-.34,0-.51,0-8.67,0-17.34,0-26,0a2.32,2.32,0,0,1-2.38-2.35c0-4.5,0-9,0-13.48Z" transform="translate(-0.08 -2.89)"/><path d="M39.48,15.39a1.31,1.31,0,0,1-1,2.36c-.76-.1-1.51-.29-2.28-.45,0-.11,0-.21,0-.22.5-.13.5-.57.59-.95.18-.83.38-1.66.56-2.49.06-.28.18-.58-.15-.8,0,0-.06-.15,0-.2a.21.21,0,0,1,.19-.06c.76.17,1.51.33,2.25.55a1,1,0,0,1,.84.95,1.19,1.19,0,0,1-.78,1.2C39.65,15.31,39.59,15.35,39.48,15.39Zm-2,1.64c.62.32,1.21.34,1.49,0a1,1,0,0,0,.22-1.11,1.33,1.33,0,0,0-1.34-.55Zm.49-2.18c.51.13,1,.36,1.44-.09a1,1,0,0,0,.21-.91c-.2-.53-.78-.49-1.29-.59Z" transform="translate(-0.08 -2.89)"/><path d="M24.71,19.32l-1.31,1c.05-.7-.48-.68-.85-.83a6,6,0,0,0-.84-.29,1,1,0,0,0-.54.05c.48.59.67,1.4,1.64,1.51l-1.23.93c-.08-.07-.12-.09-.12-.11.2-.59-.24-.93-.53-1.32-.4-.56-.81-1.1-1.23-1.64-.17-.22-.29-.55-.69-.41,0,0-.16-.09-.15-.12a.45.45,0,0,1,.13-.22l1.09-.8c-.2.9.43,1.31.81,1.87a2.78,2.78,0,0,0,.31-2c-.1-.14-.34-.17-.58-.29l.65-.51.63-.46c.05.11.12.19.11.26-.1.71-.21,1.43-.32,2.14a.33.33,0,0,0,.29.43,8,8,0,0,0,2.59.65S24.63,19.23,24.71,19.32Z" transform="translate(-0.08 -2.89)"/><path d="M28.58,13.92c-.54.38-.26.79-.14,1.18.23.74.46,1.48.72,2.21a.75.75,0,0,0,.88.58.84.84,0,0,0,.76-1.17c-.12-.52-.29-1-.44-1.52a8.56,8.56,0,0,0-.34-1c-.07-.18-.26-.3-.4-.44s-.14-.1-.17-.17.07-.14.13-.15c.35-.13.71-.24,1.07-.34.06,0,.19,0,.19.05s0,.15,0,.24a1.35,1.35,0,0,0-.09.58c.19.7.43,1.4.64,2.09a1.67,1.67,0,0,1-1.79,2.35,1.18,1.18,0,0,1-1.15-.86c-.28-.77-.51-1.56-.77-2.34-.1-.28-.1-.68-.56-.71,0,0-.05-.26,0-.26.45-.16.91-.3,1.37-.45Z" transform="translate(-0.08 -2.89)"/><path d="M45.25,18.68c.32.08.45.2.35.54a.75.75,0,0,0,.44.92.67.67,0,0,0,.86,0,.85.85,0,0,0,.26-1c-.16-.36-.36-.72-.53-1.08a1.28,1.28,0,0,1,.21-1.62,1.35,1.35,0,0,1,1.61-.15c.43.25.82.58,1.26.9l-.59.9c-.33-.05-.44-.2-.36-.51a.73.73,0,0,0-.45-.87.6.6,0,0,0-.77.07.8.8,0,0,0-.19,1c.18.37.39.74.56,1.12a1.4,1.4,0,0,1-.37,1.69,1,1,0,0,1-1.16.23,13.68,13.68,0,0,1-1.55-1.06c-.06,0-.06-.23,0-.31C44.94,19.13,45.1,18.91,45.25,18.68Z" transform="translate(-0.08 -2.89)"/><path d="M34.17,46.74c0-1,.47-1.71,1.22-1.88a1.32,1.32,0,0,1,1.66,1,4.85,4.85,0,0,1,0,1.74,1.42,1.42,0,0,1-2.73-.06A6.67,6.67,0,0,1,34.17,46.74Zm2.42,0a5.47,5.47,0,0,0-.3-1.14.81.81,0,0,0-.6-.4.8.8,0,0,0-.62.37,2.57,2.57,0,0,0,0,2.28.8.8,0,0,0,.61.38.92.92,0,0,0,.63-.44A4.14,4.14,0,0,0,36.59,46.74Z" transform="translate(-0.08 -2.89)"/><path d="M30.27,46.7a7.73,7.73,0,0,1-.3,1.1,1.31,1.31,0,0,1-1.46.77,1.23,1.23,0,0,1-1.15-.93,2.94,2.94,0,0,1,.06-1.92A1.37,1.37,0,0,1,29,44.85a1.39,1.39,0,0,1,1.23,1.32c0,.17,0,.34,0,.51Zm-.64,0a6.73,6.73,0,0,0-.32-1.19.66.66,0,0,0-1.17-.08,2.81,2.81,0,0,0,0,2.45.65.65,0,0,0,1.18-.09A6,6,0,0,0,29.63,46.75Z" transform="translate(-0.08 -2.89)"/><path d="M42.18,48.51H40.83a15.93,15.93,0,0,0,1.45-3.29c.08-.19.11-.48.41-.38a.71.71,0,0,1,.34.4c.25.75.46,1.52.7,2.27.11.33.28.64.43,1H42.92c.3-.37.37-1,.12-1.06a1.57,1.57,0,0,0-1.1,0C41.64,47.69,41.63,48.16,42.18,48.51ZM42,47h1l-.44-1.54Z" transform="translate(-0.08 -2.89)"/><path d="M30.76,45.82v-.91h2.93a5.8,5.8,0,0,1,0,.59,2.2,2.2,0,0,1-.13.36c-.11-.09-.26-.15-.3-.26a.54.54,0,0,0-.74-.36c0,.9,0,1.82,0,2.73,0,.16.2.31.33.52H31.5c.54-.36.4-.86.4-1.31,0-.65,0-1.3,0-1.94-.4-.09-.62,0-.74.36-.05.12-.2.21-.31.31Z" transform="translate(-0.08 -2.89)"/><path d="M47.09,47.54c.11,1,.11,1-.74,1-1.14.07-1.68-.4-1.71-1.55a3.63,3.63,0,0,1,.12-1.14,1.63,1.63,0,0,1,2.21-1,.35.35,0,0,1,.16.28,2.49,2.49,0,0,1-.07.53c-.11,0-.29-.06-.32-.13-.15-.31-.38-.52-.7-.41s-.58.34-.6.55a8,8,0,0,0,0,2c0,.2.37.44.62.53s.53-.12.68-.43C46.77,47.71,46.93,47.65,47.09,47.54Z" transform="translate(-0.08 -2.89)"/><path d="M40.33,45.81a1.37,1.37,0,0,1-.31-.27.67.67,0,0,0-1.22.05,2.55,2.55,0,0,0,0,2.24.77.77,0,0,0,.6.4c.2,0,.41-.24.61-.39a4.19,4.19,0,0,0,.36-.32c.18.91.13,1-.58,1-1.43.11-2.12-.75-1.83-2.29A1.64,1.64,0,0,1,40.2,44.9c.48.15.14.54.23.82Z" transform="translate(-0.08 -2.89)"/><path d="M38.92,44.37h.8l.06.07c-.15.09-.29.25-.43.25s-.32-.14-.47-.22Z" transform="translate(-0.08 -2.89)"/><polygon points="41.76 8.23 44.39 6.84 44.39 3.31 43.52 3.31 46.44 1.03 49.53 3.23 48.45 3.27 48.49 6.84 51.52 8.29 51.68 12.94 41.76 8.23"/><line class="cls-1" x1="46.45" y1="1.35" x2="46.45"/><line class="cls-1" x1="46" y1="0.47" x2="46.9" y2="0.47"/><polygon points="48.26 6.86 52.97 6.86 57.01 8.41 51.52 8.41 48.26 6.86"/><polygon points="57.01 8.28 57.01 18.48 51.52 12.86 51.52 8.28 57.01 8.28"/><polygon points="57.01 8.28 57.01 6.24 61.5 6.24 61.5 26.62 57.01 18.16 57.01 8.28"/><path class="cls-2" d="M56.41,9,59.3,6.59,62.19,9a16.15,16.15,0,0,1-2.89.47A23.24,23.24,0,0,1,56.41,9Z" transform="translate(-0.08 -2.89)"/><path class="cls-3" d="M59.34,9.66" transform="translate(-0.08 -2.89)"/><path class="cls-3" d="M59.32,8.82" transform="translate(-0.08 -2.89)"/><path class="cls-4" d="M57.09,9.17a7.2,7.2,0,0,0,2.22.32,7.17,7.17,0,0,0,2.26-.34,10.18,10.18,0,0,1-2.26.27A10.78,10.78,0,0,1,57.09,9.17Z" transform="translate(-0.08 -2.89)"/><rect class="cls-4" x="60.59" y="6.99" width="0.41" height="0.58"/><polygon class="cls-2" points="55.27 7.74 57.01 7.74 57.01 8.41 55.27 7.74"/><path class="cls-2" d="M58.93,12.11" transform="translate(-0.08 -2.89)"/><rect class="cls-4" x="59.8" y="6.99" width="0.41" height="0.58"/><rect class="cls-4" x="46.7" y="2.98" width="0.41" height="1.75"/><rect class="cls-4" x="45.79" y="2.98" width="0.41" height="1.75"/><polygon points="27.5 8.71 27.5 6.78 28.32 6.78 25.06 3.7 21.84 6.79 22.67 6.78 22.67 10.56 27.5 8.71"/><polygon class="cls-4" points="25.06 3.7 26.17 6.71 26.17 8.7 26.2 8.7 26.2 6.71 25.06 3.7"/><polygon class="cls-4" points="27.5 6.78 26.2 6.76 26.2 6.71 27.5 6.78"/><polygon class="cls-4" points="22.67 6.78 26.17 6.71 26.17 6.76 22.67 6.78"/><rect class="cls-4" x="24.24" y="7.18" width="0.36" height="0.54"/><rect class="cls-4" x="24.24" y="7.96" width="0.36" height="0.54"/><polygon class="cls-2" points="22.67 8.91 17.17 10.56 17.17 14.39 22.67 10.79 22.67 8.91"/><polygon points="17.38 10.62 17.38 9.74 13.11 9.74 13.11 18.48 17.38 14.86 17.38 10.62"/><path class="cls-2" d="M18.1,12.53l-2.75-2.32-2.76,2.32a16.92,16.92,0,0,0,2.76.45A21.79,21.79,0,0,0,18.1,12.53Z" transform="translate(-0.08 -2.89)"/><path class="cls-3" d="M15.32,13.14" transform="translate(-0.08 -2.89)"/><path class="cls-3" d="M15.33,12.34" transform="translate(-0.08 -2.89)"/><path class="cls-4" d="M17.46,12.67a7.25,7.25,0,0,1-2.12.31,6.6,6.6,0,0,1-2.15-.33,9.69,9.69,0,0,0,2.15.26A10.33,10.33,0,0,0,17.46,12.67Z" transform="translate(-0.08 -2.89)"/><rect class="cls-4" x="13.47" y="13.44" width="0.39" height="0.56" transform="translate(27.24 24.56) rotate(-180)"/><path class="cls-2" d="M15.7,15.47" transform="translate(-0.08 -2.89)"/><rect class="cls-4" x="13.47" y="15.6" width="0.39" height="0.56" transform="translate(27.24 28.87) rotate(-180)"/><path d="M36.55,11c.55,0,1.09.13,1.64.2l.56.1a2,2,0,0,1,.42,0h0l.29,0a2,2,0,0,1,.26,0v0h.83L37.33,8.16l-2.8,2.69A19.68,19.68,0,0,1,36.55,11Z" transform="translate(-0.08 -2.89)"/><polyline class="cls-4" points="38.12 7.47 37.25 5.27 38.08 7.46"/><path d="M16.33,58.5a.71.71,0,0,0-.45.06,1,1,0,0,0-.41.66.66.66,0,0,0,.25.11.6.6,0,0,1,.29-.47.62.62,0,0,1,.4-.06c.57.09,1.36.8,1.34,1.23l.07,0C18.27,59.77,17,58.6,16.33,58.5Z" transform="translate(-0.08 -2.89)"/><path d="M16.08,60c-.28-.52-.23.07,0,0Z" transform="translate(-0.08 -2.89)"/><path d="M16.38,59.34c-.07-.1-.2-.24-.35-.23s-.25.19-.29.23a.43.43,0,0,0,.16,0c.16,0,.19,0,.26.15s.21.19,0,.38a.24.24,0,0,1-.12.09h0a.64.64,0,0,0,.11.16l.1-.1A.62.62,0,0,0,16.38,59.34Z" transform="translate(-0.08 -2.89)"/><path class="cls-5" d="M16,59.11a.34.34,0,0,0-.2.12h.45A.39.39,0,0,0,16,59.11Z" transform="translate(-0.08 -2.89)"/><path d="M16.29,60a.62.62,0,0,0,.09-.69l-.1-.11h-.45l-.09.11,0,0v0a.51.51,0,0,1,0-.1h-.94l.27,1.23h.37a2.08,2.08,0,0,0,.76-.33Z" transform="translate(-0.08 -2.89)"/><path d="M16.38,59.34l-.09-.09s0,.06-.05.08c-.54.61-1.74.32-1.74.34a15.78,15.78,0,0,0,1.84.29A.65.65,0,0,0,16.38,59.34Z" transform="translate(-0.08 -2.89)"/><path class="cls-5" d="M18.19,59.11a.37.37,0,0,0-.21.12h.45A.39.39,0,0,0,18.19,59.11Z" transform="translate(-0.08 -2.89)"/><path d="M18.53,59.34l-.1-.11H18c-.05.07-.09.14-.1.13s0-.06,0-.13h-.65a1.29,1.29,0,0,1,.51.8s0,.07,0,.1-.36.28-.69.34h.52a1.82,1.82,0,0,0,.88-.44A.64.64,0,0,0,18.53,59.34Z" transform="translate(-0.08 -2.89)"/><path d="M18.53,59.34l-.1-.11a.39.39,0,0,0-.24-.12.37.37,0,0,0-.21.12c-.05.07-.09.14-.1.13s0-.06,0-.13a.62.62,0,0,1,.27-.37.63.63,0,0,1,.4-.06,1.18,1.18,0,0,1,.2.07,3.68,3.68,0,0,0-2.31-1.76,1.14,1.14,0,0,0-.73.1,1,1,0,0,0-.51.9s.22-.41.56-.44a.74.74,0,0,1,.61.42,1,1,0,0,1,.09.73,2,2,0,0,1,.77.41,1.33,1.33,0,0,1,.5.76,2,2,0,0,0,.83-.22A.58.58,0,0,0,18.53,59.34Z" transform="translate(-0.08 -2.89)"/><path d="M18.49,58.5a.73.73,0,0,0-.46.06,1.08,1.08,0,0,0-.44.67.81.81,0,0,0,.28.11.28.28,0,0,1,0-.11.62.62,0,0,1,.27-.37.63.63,0,0,1,.4-.06,1.18,1.18,0,0,1,.2.07,2.37,2.37,0,0,1,.63.36,1.18,1.18,0,0,1,.5.8L20,60C20.42,59.77,19.18,58.6,18.49,58.5Z" transform="translate(-0.08 -2.89)"/><path d="M18.57,59.77a.58.58,0,0,0,0-.43l-.1-.11a.39.39,0,0,0-.24-.12.37.37,0,0,0-.21.12.39.39,0,0,1-.09.11.43.43,0,0,0,.16,0c.17,0,.19,0,.27.15s.2.19,0,.38a.24.24,0,0,1-.12.09h0a1,1,0,0,0,.11.15.48.48,0,0,0,.11-.09A.57.57,0,0,0,18.57,59.77Z" transform="translate(-0.08 -2.89)"/><path d="M18.23,60c-.27-.52-.23.07,0,0Z" transform="translate(-0.08 -2.89)"/><path d="M18.58,59.72a5.08,5.08,0,0,1-.7,0l.68.13v0S18.57,59.74,18.58,59.72Z" transform="translate(-0.08 -2.89)"/><path class="cls-5" d="M20.33,59.11a.34.34,0,0,0-.2.12h.44A.37.37,0,0,0,20.33,59.11Z" transform="translate(-0.08 -2.89)"/><path d="M20.6,60a.62.62,0,0,0,.07-.67l-.1-.11h-.44c-.06.07-.1.14-.11.13s0-.06,0-.13h-.64c.35.3.6.67.5.9s-.36.28-.7.34h.51a1.9,1.9,0,0,0,.89-.44A0,0,0,0,0,20.6,60Z" transform="translate(-0.08 -2.89)"/><path d="M22.83,59.46a2.06,2.06,0,0,1-1,.14l0,0c.24,0,.57.1.94.15A.53.53,0,0,0,22.83,59.46Z" transform="translate(-0.08 -2.89)"/><path d="M22.84,59.79a.53.53,0,0,0,0-.33.38.38,0,0,0,0-.1.43.43,0,0,0-.34-.23c-.16,0-.25.18-.29.22a.36.36,0,0,0,.15,0c.17,0,.19,0,.27.14s.2.19,0,.39a.31.31,0,0,1-.12.09h0l.11.15.11-.09A.57.57,0,0,0,22.84,59.79Z" transform="translate(-0.08 -2.89)"/><path d="M22.76,58.51a.75.75,0,0,0-.46.07,1,1,0,0,0-.41.66,1.34,1.34,0,0,0,.25.11.6.6,0,0,1,.29-.48.61.61,0,0,1,.4,0,1.25,1.25,0,0,1,.49.19,1.87,1.87,0,0,1,.83.88.89.89,0,0,1,0,.15l.07,0C24.69,59.79,23.45,58.62,22.76,58.51Z" transform="translate(-0.08 -2.89)"/><path d="M22.5,60c-.27-.52-.23.07,0,0Z" transform="translate(-0.08 -2.89)"/><path class="cls-5" d="M22.46,59.13a.32.32,0,0,0-.2.1h.43A.32.32,0,0,0,22.46,59.13Z" transform="translate(-0.08 -2.89)"/><path d="M22.72,60.05a.57.57,0,0,0,.12-.26.53.53,0,0,0,0-.33.38.38,0,0,0,0-.1l-.11-.13h-.43l-.09.12,0,0v0s0-.06,0-.12h-.63a2,2,0,0,1,.45.53.46.46,0,0,1,.05.37c-.08.19-.37.28-.71.34h.55a1.9,1.9,0,0,0,.74-.33Z" transform="translate(-0.08 -2.89)"/><path d="M22.15,59.37v0s0-.06,0-.12l.06-.12a3.51,3.51,0,0,0-2.39-2,1.14,1.14,0,0,0-.73.1,1,1,0,0,0-.51.9c.05,0,.22-.41.56-.44a.74.74,0,0,1,.61.42,1.12,1.12,0,0,1-.14,1.24l-.07.06a1,1,0,0,1,.33.59l.72,0a.62.62,0,0,0,.07-.67.44.44,0,0,0-.34-.23c-.19,0-.28.26-.31.25s0-.36.28-.5a.65.65,0,0,1,.41-.06,2.08,2.08,0,0,1,1.27,1,.64.64,0,0,0,.24-.25.52.52,0,0,0,0-.25l-.07.09Z" transform="translate(-0.08 -2.89)"/><path d="M25,59.36a.42.42,0,0,0-.34-.23c-.19,0-.28.26-.31.24s0-.35.28-.5a.64.64,0,0,1,.41,0,1.81,1.81,0,0,1,.82.43c.09-.78-1.36-2.1-2.4-2.26a1.13,1.13,0,0,0-.73.1,1,1,0,0,0-.52.9c.06,0,.23-.41.56-.44a.74.74,0,0,1,.62.42,1.1,1.1,0,0,1,0,1,1.87,1.87,0,0,1,.83.88,4.32,4.32,0,0,0,.83-.06A.59.59,0,0,0,25,59.36Z" transform="translate(-0.08 -2.89)"/><path d="M25,59.83a.59.59,0,0,0,0-.47.42.42,0,0,0-.34-.23c-.17,0-.26.19-.3.23h.17c.16,0,.19,0,.26.14s.21.19,0,.39a.44.44,0,0,1-.13.09h0a.58.58,0,0,0,.11.15l.1-.09A.57.57,0,0,0,25,59.83Z" transform="translate(-0.08 -2.89)"/><path d="M24.65,60c-.27-.52-.23.07,0,0Z" transform="translate(-0.08 -2.89)"/><path d="M24.91,58.51a.72.72,0,0,0-.45.07,1.06,1.06,0,0,0-.45.67,1.21,1.21,0,0,0,.29.1.59.59,0,0,1,.28-.48.64.64,0,0,1,.41,0,1.81,1.81,0,0,1,.82.43,1.2,1.2,0,0,1,.51.8l.08,0C26.84,59.79,25.6,58.62,24.91,58.51Z" transform="translate(-0.08 -2.89)"/><path class="cls-5" d="M24.61,59.13a.3.3,0,0,0-.2.1h.43A.3.3,0,0,0,24.61,59.13Z" transform="translate(-0.08 -2.89)"/><path d="M24.87,60.05a.57.57,0,0,0,.11-.22.59.59,0,0,0,0-.47.63.63,0,0,0-.11-.13h-.43l-.1.13h0v0a.28.28,0,0,1,0-.12h-.67a1.64,1.64,0,0,1,.51.66.89.89,0,0,1,0,.15.37.37,0,0,1,0,.11c-.07.17-.33.26-.65.32H24a2,2,0,0,0,.75-.33Z" transform="translate(-0.08 -2.89)"/><path d="M27.09,59.36a.42.42,0,0,0-.29-.21s0,0,0,0a1.15,1.15,0,0,1-.68.35,1.86,1.86,0,0,1,.14.2c.27,0,.58.08.89.1A.58.58,0,0,0,27.09,59.36Z" transform="translate(-0.08 -2.89)"/><path d="M27.05,58.51a.73.73,0,0,0-.45.07,1.06,1.06,0,0,0-.45.67,1.42,1.42,0,0,0,.29.1.59.59,0,0,1,.29-.48.45.45,0,0,1,.24-.06h.16a2,2,0,0,1,1.29,1,.51.51,0,0,1,0,.2l.08,0C29,59.79,27.74,58.62,27.05,58.51Z" transform="translate(-0.08 -2.89)"/><path d="M26.8,60c-.28-.52-.23.07,0,0Z" transform="translate(-0.08 -2.89)"/><path d="M27.12,59.84a.58.58,0,0,0,0-.48.42.42,0,0,0-.29-.21l-.05,0c-.16,0-.25.19-.29.23h.16c.16,0,.19,0,.26.14s.21.19,0,.39a.61.61,0,0,1-.12.09h0a.58.58,0,0,0,.11.15l.1-.09A.7.7,0,0,0,27.12,59.84Z" transform="translate(-0.08 -2.89)"/><path class="cls-5" d="M26.8,59.15l-.05,0a.26.26,0,0,0-.19.1H27A.37.37,0,0,0,26.8,59.15Z" transform="translate(-0.08 -2.89)"/><path d="M27,60.05a.7.7,0,0,0,.11-.21.58.58,0,0,0,0-.48.33.33,0,0,0-.11-.13h-.42l-.1.13h0v0s0-.06,0-.12h-.67l0,0a1.2,1.2,0,0,1,.51.8s0,.07,0,.1-.34.27-.66.33h.5a2.23,2.23,0,0,0,.76-.34Z" transform="translate(-0.08 -2.89)"/><path d="M28.89,59.1c-.19,0-.28.26-.31.24a.55.55,0,0,1,.29-.49.62.62,0,0,1,.4-.06h.05A3.67,3.67,0,0,0,27,57a1.13,1.13,0,0,0-.73.1,1,1,0,0,0-.52.9c.06,0,.23-.41.56-.44a.75.75,0,0,1,.62.42,1,1,0,0,1,0,.86h.16a2,2,0,0,1,1.29,1,1.38,1.38,0,0,0,.87-.35.44.44,0,0,0-.06-.16A.4.4,0,0,0,28.89,59.1Z" transform="translate(-0.08 -2.89)"/><path d="M29.19,58.49a.64.64,0,0,0-.45.06,1.06,1.06,0,0,0-.45.67.9.9,0,0,0,.29.11.56.56,0,0,1,.29-.48.62.62,0,0,1,.4-.06h.05c.57.12,1.3.8,1.28,1.22l.08,0C31.13,59.76,29.88,58.59,29.19,58.49Z" transform="translate(-0.08 -2.89)"/><path d="M29.29,59.49a.44.44,0,0,0-.06-.16.4.4,0,0,0-.34-.23c-.16,0-.25.2-.29.23h.16c.16,0,.19,0,.26.14s.21.19,0,.39a.36.36,0,0,1-.12.09h0a.91.91,0,0,0,.11.16.94.94,0,0,0,.1-.1A.65.65,0,0,0,29.29,59.49Z" transform="translate(-0.08 -2.89)"/><path d="M28.94,60c-.28-.52-.23.07,0,0Z" transform="translate(-0.08 -2.89)"/><path class="cls-5" d="M28.89,59.1a.33.33,0,0,0-.22.13h.48A.35.35,0,0,0,28.89,59.1Z" transform="translate(-0.08 -2.89)"/><path d="M29.15,60a.65.65,0,0,0,.14-.53.44.44,0,0,0-.06-.16l-.08-.1h-.48l-.07.1h0s0,0,0-.1h-.66a1.67,1.67,0,0,1,.49.61.51.51,0,0,1,0,.2s0,.08,0,.11-.34.27-.67.33h.39a2.5,2.5,0,0,0,.88-.36A.94.94,0,0,0,29.15,60Z" transform="translate(-0.08 -2.89)"/><path d="M28.75,59.55l.53.11V59.6C29,59.59,28.75,59.54,28.75,59.55Z" transform="translate(-0.08 -2.89)"/><path d="M31.33,58.49a.64.64,0,0,0-.45.06,1.16,1.16,0,0,0-.45.67,1,1,0,0,0,.29.11.56.56,0,0,1,.29-.48.62.62,0,0,1,.4-.06c.57.08,1.36.8,1.34,1.23l.07,0C33.27,59.76,32,58.59,31.33,58.49Z" transform="translate(-0.08 -2.89)"/><path d="M31.37,59.33A.4.4,0,0,0,31,59.1c-.16,0-.25.2-.29.23h.16c.16,0,.19,0,.26.14s.21.19,0,.39a.24.24,0,0,1-.12.09h0a.91.91,0,0,0,.11.16.94.94,0,0,0,.1-.1A.62.62,0,0,0,31.37,59.33Z" transform="translate(-0.08 -2.89)"/><path d="M31.08,60c-.28-.52-.23.07,0,0Z" transform="translate(-0.08 -2.89)"/><path class="cls-5" d="M31,59.1a.33.33,0,0,0-.21.13h.47A.35.35,0,0,0,31,59.1Z" transform="translate(-0.08 -2.89)"/><path d="M31.19,60.12a.94.94,0,0,0,.1-.1.35.35,0,0,0,.08-.13.59.59,0,0,0,0-.56s-.05-.06-.08-.1h-.47c0,.05-.06.09-.08.1h0a.46.46,0,0,1,0-.1h-.62a1.2,1.2,0,0,1,.49.79.17.17,0,0,1,0,.1c-.08.21-.43.31-.84.36h.56A2.57,2.57,0,0,0,31.19,60.12Z" transform="translate(-0.08 -2.89)"/><path d="M33.25,59.9c-.28-.52-.23.07,0,0Z" transform="translate(-0.08 -2.89)"/><path d="M33.5,59.35c-.06-.11-.19-.25-.34-.23a.31.31,0,0,0-.23.15h.14c.16,0,.19,0,.26.14s.21.19,0,.39a.31.31,0,0,1-.12.09h0a.83.83,0,0,0,.13.18l0,0A.62.62,0,0,0,33.5,59.35Z" transform="translate(-0.08 -2.89)"/><path d="M33.5,58.43a.65.65,0,0,0-.45.06,1,1,0,0,0-.41.66l.22.1a.63.63,0,0,1,.28-.39.55.55,0,0,1,.4,0A1.89,1.89,0,0,1,34.88,60l.11,0A2.18,2.18,0,0,0,33.5,58.43Z" transform="translate(-0.08 -2.89)"/><path d="M32.93,59.27s-.07.1-.08.09,0,0,0-.11a.67.67,0,0,1,.2-.32A3.56,3.56,0,0,0,30.7,57a1.13,1.13,0,0,0-.73.1,1,1,0,0,0-.52.9c.06,0,.23-.41.56-.44a.75.75,0,0,1,.62.42,1.14,1.14,0,0,1-.15,1.24.91.91,0,0,1-.21.18,1.41,1.41,0,0,1,.3.45,7.31,7.31,0,0,0,.8,0,.59.59,0,0,0,0-.56A.4.4,0,0,0,31,59.1c-.16,0-.25.2-.29.23h0a.56.56,0,0,1,.29-.48.62.62,0,0,1,.4-.06,2,2,0,0,1,1.25.94.67.67,0,0,0,.42-.34.69.69,0,0,0,0-.25A.35.35,0,0,0,32.93,59.27Z" transform="translate(-0.08 -2.89)"/><path class="cls-5" d="M33.16,59.12l0,0a.33.33,0,0,0-.13.09h.43A.34.34,0,0,0,33.16,59.12Z" transform="translate(-0.08 -2.89)"/><path d="M33.42,60a.62.62,0,0,0,.08-.69.94.94,0,0,0-.09-.12H33s0,0,0,0-.07.1-.08.09,0,0,0-.11v0h-.62a1.86,1.86,0,0,1,.42.5.69.69,0,0,1,.09.29s0,.07,0,.1c-.08.21-.44.31-.85.36h.6a2,2,0,0,0,.9-.4Z" transform="translate(-0.08 -2.89)"/><path d="M33.56,59.52a2.56,2.56,0,0,1-1,0l0,0c.2,0,.56.11,1,.17A.49.49,0,0,0,33.56,59.52Z" transform="translate(-0.08 -2.89)"/><path d="M35.65,59.35c-.06-.11-.19-.25-.34-.23s-.28.26-.31.24a.59.59,0,0,1,.29-.5.55.55,0,0,1,.4,0,1.93,1.93,0,0,1,1,.59h0c.31-.74-1.27-2.23-2.38-2.4a1.13,1.13,0,0,0-.73.1,1.06,1.06,0,0,0-.52.9c.06,0,.23-.41.56-.44a.74.74,0,0,1,.62.42,1.12,1.12,0,0,1-.08,1.13c.07,0,.14.08.2.13a1.54,1.54,0,0,1,.48.66,7.24,7.24,0,0,0,.82,0A.59.59,0,0,0,35.65,59.35Z" transform="translate(-0.08 -2.89)"/><path class="cls-5" d="M35.31,59.12a.31.31,0,0,0-.2.11h.45A.34.34,0,0,0,35.31,59.12Z" transform="translate(-0.08 -2.89)"/><path d="M35.67,59.87a.59.59,0,0,0,0-.52.94.94,0,0,0-.09-.12h-.45c0,.07-.09.14-.11.13s0-.06,0-.13h-.65a1.46,1.46,0,0,1,.51.74.27.27,0,0,1,0,.16c-.08.2-.4.3-.79.36h.55a2,2,0,0,0,1-.45A.42.42,0,0,0,35.67,59.87Z" transform="translate(-0.08 -2.89)"/><path d="M37.8,59.35a.5.5,0,0,0-.26-.21l0,.07a1.13,1.13,0,0,1-.66.35,1.2,1.2,0,0,1,.13.21c.27,0,.56.07.86.09A.61.61,0,0,0,37.8,59.35Z" transform="translate(-0.08 -2.89)"/><path d="M37.76,58.5a.73.73,0,0,0-.46.06,1.12,1.12,0,0,0-.44.68,1.25,1.25,0,0,0,.28.1.62.62,0,0,1,.29-.48.58.58,0,0,1,.27-.06h.13a2,2,0,0,1,1.31,1,.55.55,0,0,1,0,.17l.07,0C39.69,59.77,38.45,58.6,37.76,58.5Z" transform="translate(-0.08 -2.89)"/><path d="M37.82,59.86a.61.61,0,0,0,0-.51.5.5,0,0,0-.26-.21s-.06,0-.08,0c-.17,0-.26.19-.3.22a.43.43,0,0,0,.16,0c.17,0,.19,0,.26.15s.21.19,0,.38a.19.19,0,0,1-.12.09h0l.11.15.11-.09A.77.77,0,0,0,37.82,59.86Z" transform="translate(-0.08 -2.89)"/><path d="M37.5,60c-.27-.51-.23.07,0,0Z" transform="translate(-0.08 -2.89)"/><path class="cls-5" d="M37.54,59.14s-.06,0-.08,0a.31.31,0,0,0-.21.11h.45A.51.51,0,0,0,37.54,59.14Z" transform="translate(-0.08 -2.89)"/><path d="M37.72,60a.77.77,0,0,0,.1-.18.61.61,0,0,0,0-.51l-.1-.12h-.45a.65.65,0,0,1-.09.11v0a.28.28,0,0,1,0-.11h-.65l.19.17c.24.26.4.54.31.73s-.41.31-.8.36h.54a2.37,2.37,0,0,0,.86-.36Z" transform="translate(-0.08 -2.89)"/><path d="M40.1,58.55a.71.71,0,0,0-.45.06,1.16,1.16,0,0,0-.45.67,1,1,0,0,0,.29.11.56.56,0,0,1,.29-.48.62.62,0,0,1,.4-.06c.57.09,1.36.8,1.34,1.23l.07,0C42,59.82,40.8,58.65,40.1,58.55Z" transform="translate(-0.08 -2.89)"/><path d="M40.14,59.39a.42.42,0,0,0-.34-.23c-.16,0-.25.2-.29.23a.43.43,0,0,0,.16,0c.16,0,.19,0,.26.15s.21.19,0,.38a.24.24,0,0,1-.12.09h0a.64.64,0,0,0,.11.16l.1-.1A.62.62,0,0,0,40.14,59.39Z" transform="translate(-0.08 -2.89)"/><path d="M39.85,60c-.28-.52-.23.07,0,0Z" transform="translate(-0.08 -2.89)"/><path d="M39.38,59.55s.34.08.83.16v-.12A3.81,3.81,0,0,1,39.38,59.55Z" transform="translate(-0.08 -2.89)"/><path d="M39.8,59.16c-.16,0-.25.2-.29.23l0,0v0a.56.56,0,0,1,.29-.48.4.4,0,0,1,.27-.06A3.62,3.62,0,0,0,37.71,57a1.13,1.13,0,0,0-.73.1,1,1,0,0,0-.52.9c.06,0,.23-.41.56-.44a.75.75,0,0,1,.62.42,1.08,1.08,0,0,1,.06.83h.13a2,2,0,0,1,1.31,1c.47-.06.84-.2,1-.47,0,0,0,0,0,0A.39.39,0,0,0,39.8,59.16Z" transform="translate(-0.08 -2.89)"/><path class="cls-5" d="M39.8,59.16a.35.35,0,0,0-.15.07H40A.34.34,0,0,0,39.8,59.16Z" transform="translate(-0.08 -2.89)"/><path d="M40.06,60.08a.59.59,0,0,0,.15-.37v-.12a.48.48,0,0,0-.07-.2l0,0a1.14,1.14,0,0,0-.11-.11h-.34a1.27,1.27,0,0,0-.14.16l0,0v0a.41.41,0,0,1,0-.16h-.87a1.69,1.69,0,0,1,.49.63.55.55,0,0,1,0,.17.31.31,0,0,1,0,.1c-.09.21-.43.31-.82.36h.93a1.89,1.89,0,0,0,.69-.31Z" transform="translate(-0.08 -2.89)"/><path d="M43.72,59.39c.31-.74-1.28-2.23-2.39-2.4a1.14,1.14,0,0,0-.73.1,1,1,0,0,0-.51.9s.22-.41.56-.44a.74.74,0,0,1,.61.42,1.12,1.12,0,0,1-.14,1.24l-.1.08a1.79,1.79,0,0,1,.45.58,7.91,7.91,0,0,0,.84,0,.62.62,0,0,0,0-.5c-.07-.1-.2-.24-.34-.23s-.29.26-.32.25a.59.59,0,0,1,.29-.5.62.62,0,0,1,.4-.06,2.13,2.13,0,0,1,1.17.79A.68.68,0,0,0,43.72,59.39Z" transform="translate(-0.08 -2.89)"/><path class="cls-5" d="M42,59.16a.35.35,0,0,0-.15.07h.35A.37.37,0,0,0,42,59.16Z" transform="translate(-0.08 -2.89)"/><path d="M42.31,59.89a.62.62,0,0,0,0-.5.67.67,0,0,0-.14-.16H41.8c-.09.08-.15.19-.17.18a.38.38,0,0,1,0-.18h-.73l.09.06a1.79,1.79,0,0,1,.45.58.54.54,0,0,1,.05.21s0,.07,0,.1-.28.25-.56.31h.47a1.66,1.66,0,0,0,.8-.41A.57.57,0,0,0,42.31,59.89Z" transform="translate(-0.08 -2.89)"/><path d="M44.44,59.49a2.23,2.23,0,0,1-1,.09l0,0c.24.05.6.11,1,.16A.48.48,0,0,0,44.44,59.49Z" transform="translate(-0.08 -2.89)"/><path d="M44.37,58.56a.73.73,0,0,0-.45.07,1,1,0,0,0-.41.66,1.34,1.34,0,0,0,.25.11.55.55,0,0,1,.69-.53,1.27,1.27,0,0,1,.52.21,1.93,1.93,0,0,1,.78.81.51.51,0,0,1,0,.2l.07,0C46.31,59.84,45.07,58.67,44.37,58.56Z" transform="translate(-0.08 -2.89)"/><path d="M44.47,59.78a.48.48,0,0,0,0-.29s0-.06,0-.08a.4.4,0,0,0-.34-.23c-.16,0-.25.18-.29.22a.41.41,0,0,0,.16,0c.16,0,.19,0,.26.14s.21.19,0,.39a.31.31,0,0,1-.12.09h0a.58.58,0,0,0,.11.15l.1-.09A.62.62,0,0,0,44.47,59.78Z" transform="translate(-0.08 -2.89)"/><path d="M44.12,60c-.28-.52-.23.07,0,0Z" transform="translate(-0.08 -2.89)"/><path class="cls-5" d="M44.07,59.18a.29.29,0,0,0-.13,0h.29A.24.24,0,0,0,44.07,59.18Z" transform="translate(-0.08 -2.89)"/><path d="M44.33,60.1a.62.62,0,0,0,.14-.32.48.48,0,0,0,0-.29s0-.06,0-.08a.44.44,0,0,0-.18-.18h-.29a1.94,1.94,0,0,0-.16.17,0,0,0,0,1,0,0v0a.54.54,0,0,1,0-.17h-.72a2.65,2.65,0,0,1,.41.41.63.63,0,0,1,.16.54c-.07.16-.3.26-.58.32h.51a2,2,0,0,0,.65-.31Z" transform="translate(-0.08 -2.89)"/><path d="M46.57,59.41a.43.43,0,0,0-.34-.23c-.19,0-.29.26-.32.24a.55.55,0,0,1,.69-.55,1.77,1.77,0,0,1,.89.49c.26-.75-1.29-2.21-2.39-2.37a1.11,1.11,0,0,0-.72.1,1,1,0,0,0-.52.9s.22-.41.56-.44A.77.77,0,0,1,45,58,1.13,1.13,0,0,1,45,59.08a1.93,1.93,0,0,1,.78.81,4.69,4.69,0,0,0,.86,0A.58.58,0,0,0,46.57,59.41Z" transform="translate(-0.08 -2.89)"/><path d="M46.61,59.84a.58.58,0,0,0,0-.43.43.43,0,0,0-.34-.23c-.17,0-.26.19-.3.23h.16c.16,0,.19,0,.26.14s.21.19,0,.39a.31.31,0,0,1-.12.09h0a1,1,0,0,0,.11.15l.11-.09A.57.57,0,0,0,46.61,59.84Z" transform="translate(-0.08 -2.89)"/><path d="M46.27,60c-.27-.52-.23.07,0,0Z" transform="translate(-0.08 -2.89)"/><path d="M46.53,58.56a.75.75,0,0,0-.46.07,1.08,1.08,0,0,0-.44.67,1.25,1.25,0,0,0,.28.1.65.65,0,0,1,.29-.48.61.61,0,0,1,.4-.05,1.77,1.77,0,0,1,.89.49,1.06,1.06,0,0,1,.44.74l.08,0C48.46,59.84,47.22,58.67,46.53,58.56Z" transform="translate(-0.08 -2.89)"/><path class="cls-5" d="M46.23,59.18a.29.29,0,0,0-.14,0h.3A.25.25,0,0,0,46.23,59.18Z" transform="translate(-0.08 -2.89)"/><path d="M46.49,60.1a.57.57,0,0,0,.12-.26.58.58,0,0,0,0-.43.62.62,0,0,0-.18-.18h-.3a1.72,1.72,0,0,0-.16.18h0v0a.61.61,0,0,1,0-.17H45.2a1.83,1.83,0,0,1,.55.66.51.51,0,0,1,0,.2.2.2,0,0,1,0,.11.7.7,0,0,1-.5.3h.45a1.87,1.87,0,0,0,.66-.31Z" transform="translate(-0.08 -2.89)"/><path d="M48.71,59.41a.49.49,0,0,0-.21-.19,1.21,1.21,0,0,1-.79.36l.11.16q.43.07.93.12A.58.58,0,0,0,48.71,59.41Z" transform="translate(-0.08 -2.89)"/><path d="M48.41,60c-.27-.52-.23.07,0,0Z" transform="translate(-0.08 -2.89)"/><path d="M48.75,59.86a.58.58,0,0,0,0-.45.49.49,0,0,0-.21-.19.38.38,0,0,0-.13,0c-.17,0-.26.19-.3.23h.16c.17,0,.2,0,.27.14s.21.19,0,.39a.44.44,0,0,1-.13.09h0a1,1,0,0,0,.1.15l.11-.09A.68.68,0,0,0,48.75,59.86Z" transform="translate(-0.08 -2.89)"/><path d="M48.67,58.56a.75.75,0,0,0-.46.07,1.08,1.08,0,0,0-.44.67,1.21,1.21,0,0,0,.29.1.59.59,0,0,1,.28-.48.55.55,0,0,1,.36-.05h0a2,2,0,0,1,1.28,1,.47.47,0,0,1,0,.22l.08,0C50.6,59.84,49.36,58.67,48.67,58.56Z" transform="translate(-0.08 -2.89)"/><path class="cls-5" d="M48.5,59.22a.38.38,0,0,0-.13,0,.29.29,0,0,0-.14,0h.27Z" transform="translate(-0.08 -2.89)"/><path d="M48.63,60.1a.68.68,0,0,0,.12-.24.58.58,0,0,0,0-.45.51.51,0,0,0-.2-.18h-.28a1.72,1.72,0,0,0-.16.18h0v0a.32.32,0,0,1,0-.17h-.74a.86.86,0,0,1,.14.13,1.06,1.06,0,0,1,.44.74.34.34,0,0,1,0,.1.74.74,0,0,1-.53.3h.45a1.75,1.75,0,0,0,.67-.31Z" transform="translate(-0.08 -2.89)"/><path d="M50.51,59.15c-.19,0-.28.26-.31.24s0-.35.28-.49a.65.65,0,0,1,.41-.06l.19,0A3.58,3.58,0,0,0,48.73,57a1.13,1.13,0,0,0-.73.1,1,1,0,0,0-.52.9c.06,0,.23-.41.56-.44a.75.75,0,0,1,.62.42,1.09,1.09,0,0,1,0,.9h0a2,2,0,0,1,1.28,1,1.84,1.84,0,0,0,.88-.25.48.48,0,0,0-.06-.24A.42.42,0,0,0,50.51,59.15Z" transform="translate(-0.08 -2.89)"/><path d="M50.55,60c-.27-.52-.23.07,0,0Z" transform="translate(-0.08 -2.89)"/><path d="M50.91,59.62a.48.48,0,0,0-.06-.24.42.42,0,0,0-.34-.23c-.17,0-.26.2-.3.23h.16c.17,0,.2,0,.27.14s.21.19,0,.39a.31.31,0,0,1-.13.09h0a.91.91,0,0,0,.11.16l.1-.1A.66.66,0,0,0,50.91,59.62Z" transform="translate(-0.08 -2.89)"/><path d="M50.81,58.54a.67.67,0,0,0-.46.06,1.08,1.08,0,0,0-.44.67.8.8,0,0,0,.29.11.57.57,0,0,1,.28-.48.65.65,0,0,1,.41-.06l.19,0c.54.19,1.16.79,1.14,1.18l.08,0C52.74,59.81,51.5,58.64,50.81,58.54Z" transform="translate(-0.08 -2.89)"/><path class="cls-5" d="M50.51,59.15a.34.34,0,0,0-.17.08h.38A.32.32,0,0,0,50.51,59.15Z" transform="translate(-0.08 -2.89)"/><path d="M50.77,60.07a.66.66,0,0,0,.14-.45.48.48,0,0,0-.06-.24.87.87,0,0,0-.13-.15h-.38c-.06.06-.1.13-.13.15h0a.3.3,0,0,1,0-.15H49.5a1.81,1.81,0,0,1,.53.64.47.47,0,0,1,0,.22.37.37,0,0,1,0,.11c-.07.15-.27.24-.54.3h.35a2.19,2.19,0,0,0,.79-.33Z" transform="translate(-0.08 -2.89)"/><path d="M50.91,59.6a4.17,4.17,0,0,1-.74-.05s.3.07.73.14c0,0,0,0,0-.07Z" transform="translate(-0.08 -2.89)"/><path d="M52.12,57a1.13,1.13,0,0,0-.73.1,1,1,0,0,0-.52.9c.06,0,.23-.41.56-.44a.75.75,0,0,1,.62.42,1.12,1.12,0,0,1-.15,1.24,1.42,1.42,0,0,1-.13.12,1.58,1.58,0,0,1,.41.53,7.77,7.77,0,0,0,.83,0,.57.57,0,0,0,0-.51.42.42,0,0,0-.34-.23c-.19,0-.28.26-.31.24a.55.55,0,0,1,.29-.49.62.62,0,0,1,.4-.06,2.09,2.09,0,0,1,1.19.83.58.58,0,0,0,.28-.28C54.81,58.65,53.23,57.16,52.12,57Z" transform="translate(-0.08 -2.89)"/><path class="cls-5" d="M52.65,59.15a.27.27,0,0,0-.16.08h.37A.32.32,0,0,0,52.65,59.15Z" transform="translate(-0.08 -2.89)"/><path d="M53,59.89a.57.57,0,0,0,0-.51.58.58,0,0,0-.13-.15h-.37c-.08.08-.13.17-.15.16s0-.07,0-.16h-.69a1.27,1.27,0,0,1,.55.84.34.34,0,0,1,0,.1c-.08.18-.36.28-.71.34H52a1.94,1.94,0,0,0,.89-.44A.52.52,0,0,0,53,59.89Z" transform="translate(-0.08 -2.89)"/><path d="M55.22,59.23H53.8a2.15,2.15,0,0,1,.42.44c.12.19.19.37.13.5s-.37.28-.72.34H55Z" transform="translate(-0.08 -2.89)"/><path d="M62.87,33.83a28.55,28.55,0,0,0-6.4-13.53c-5.61-6.59-12.77-10-21.79-10.2-1,.08-2.27.18-3.58.32a18.15,18.15,0,0,0-2.06.37A28.09,28.09,0,0,0,10,25.53a29.4,29.4,0,0,0-3,19.29,28.37,28.37,0,0,0,7.3,14.93c.23.25.47.48.71.71h.41a2,2,0,0,0,.72-.32l.1-.1h0a27.34,27.34,0,0,1-8-14.86,28,28,0,0,1,1.6-16.54c3.71-8.76,10.14-14.45,19.47-16.68a23.73,23.73,0,0,1,9.16-.36c9.46,1.47,16.25,6.63,20.63,15a28.94,28.94,0,0,1,3,13.77,28,28,0,0,1-7.58,18.7c-.16.18-.33.34-.49.5l.06.08c.12.19.19.37.13.5s-.29.25-.57.31h0c.13,0,.26,0,.4,0a4.14,4.14,0,0,1,.61,0l.18,0a32.08,32.08,0,0,0,4.37-5.85A29.49,29.49,0,0,0,62.87,33.83Z" transform="translate(-0.08 -2.89)"/></svg>